# xmcd
#
# Track frame offsets: 
#        150
#        18743
#        34017
#        48126
#        64183
#        80518
#        100050
#        114536
#        132976
#        150149
#        174684
#
# Disc length: 2542 seconds
#
# Revision: 0
# Processed by: cddbd v1.5.1PL0 Copyright (c) Steve Scherf et al.
# Submitted via: ExactAudioCopy v0.95a5
#
DISCID=8409ec0b
DTITLE=Sinobusi - Nekad jurimo kroz polja, a nekad stojimo u stanicama
DYEAR=2005
DGENRE=Blues
TTITLE0=Lowlanders blues
TTITLE1=U rano jutro opet bude me dan
TTITLE2=In the bottle
TTITLE3=Boli i mene
TTITLE4=Kraj jezera
TTITLE5=Pakleni dan
TTITLE6=Kada svrake bulje u mene
TTITLE7=Catch the chicken
TTITLE8=Secanje na Srem
TTITLE9=Porazen u svom kaputu
TTITLE10=Bela tacka
EXTD=
EXTT0=
EXTT1=
EXTT2=
EXTT3=
EXTT4=
EXTT5=
EXTT6=
EXTT7=
EXTT8=
EXTT9=
EXTT10=
PLAYORDER=
